<svg width="22" height="22" viewBox="0 0 22 22" fill="none" xmlns="http://www.w3.org/2000/svg">
<g clip-path="url(#clip0)">
<path d="M21.5417 21.0834H0.458348C0.205348 21.0834 0 21.2887 0 21.5417C0 21.7947 0.205348 22 0.458348 22H21.5417C21.7947 22 22 21.7947 22 21.5417C22 21.2887 21.7947 21.0834 21.5417 21.0834Z" fill="white"/>
<path d="M4.12485 15.5834H1.37485C1.12185 15.5834 0.916504 15.7887 0.916504 16.0417V21.5417C0.916504 21.7947 1.12185 22 1.37485 22H4.12485C4.37785 22 4.5832 21.7947 4.5832 21.5417V16.0417C4.5832 15.7887 4.37785 15.5834 4.12485 15.5834ZM3.6665 21.0834H1.8332V16.5H3.66655V21.0834H3.6665Z" fill="white"/>
<path d="M9.62485 11H6.87485C6.62185 11 6.4165 11.2053 6.4165 11.4583V21.5417C6.4165 21.7947 6.62185 22 6.87485 22H9.62485C9.87785 22 10.0832 21.7947 10.0832 21.5417V11.4583C10.0832 11.2053 9.87785 11 9.62485 11ZM9.1665 21.0833H7.33316V11.9167H9.1665V21.0833Z" fill="white"/>
<path d="M15.1248 12.8334H12.3749C12.1219 12.8334 11.9165 13.0387 11.9165 13.2917V21.5417C11.9165 21.7947 12.1219 22.0001 12.3749 22.0001H15.1248C15.3778 22.0001 15.5832 21.7947 15.5832 21.5417V13.2917C15.5832 13.0387 15.3778 12.8334 15.1248 12.8334ZM14.6665 21.0834H12.8332V13.75H14.6665V21.0834Z" fill="white"/>
<path d="M20.6249 7.33337H17.8749C17.6219 7.33337 17.4165 7.53872 17.4165 7.79172V21.5417C17.4165 21.7947 17.6219 22.0001 17.8749 22.0001H20.6249C20.8779 22.0001 21.0832 21.7947 21.0832 21.5417V7.79172C21.0832 7.53868 20.8779 7.33337 20.6249 7.33337ZM20.1665 21.0834H18.3332V8.25003H20.1665V21.0834Z" fill="white"/>
<path d="M2.74985 8.25C1.73875 8.25 0.916504 9.07225 0.916504 10.0833C0.916504 11.0944 1.73875 11.9167 2.74985 11.9167C3.76095 11.9167 4.5832 11.0944 4.5832 10.0833C4.5832 9.07225 3.76095 8.25 2.74985 8.25ZM2.74985 11C2.24385 11 1.8332 10.5884 1.8332 10.0833C1.8332 9.57825 2.24385 9.1667 2.74985 9.1667C3.25585 9.1667 3.6665 9.57829 3.6665 10.0833C3.6665 10.5884 3.25585 11 2.74985 11Z" fill="white"/>
<path d="M8.24985 3.66663C7.23875 3.66663 6.4165 4.48888 6.4165 5.49997C6.4165 6.51107 7.23875 7.33332 8.24985 7.33332C9.26095 7.33332 10.0832 6.51107 10.0832 5.49997C10.0832 4.48888 9.26095 3.66663 8.24985 3.66663ZM8.24985 6.41662C7.74385 6.41662 7.3332 6.00503 7.3332 5.49997C7.3332 4.99487 7.74385 4.58332 8.24985 4.58332C8.75585 4.58332 9.1665 4.99492 9.1665 5.49997C9.1665 6.00507 8.75585 6.41662 8.24985 6.41662Z" fill="white"/>
<path d="M13.7499 5.5C12.7388 5.5 11.9165 6.32225 11.9165 7.33335C11.9165 8.34445 12.7388 9.1667 13.7499 9.1667C14.7609 9.1667 15.5832 8.34445 15.5832 7.33335C15.5832 6.32225 14.7609 5.5 13.7499 5.5ZM13.7499 8.25C13.2439 8.25 12.8332 7.8384 12.8332 7.33335C12.8332 6.82825 13.2439 6.4167 13.7499 6.4167C14.2559 6.4167 14.6665 6.82829 14.6665 7.33335C14.6665 7.8384 14.2559 8.25 13.7499 8.25Z" fill="white"/>
<path d="M19.2499 0C18.2388 0 17.4165 0.82225 17.4165 1.83335C17.4165 2.84445 18.2388 3.6667 19.2499 3.6667C20.2609 3.6667 21.0832 2.84445 21.0832 1.83335C21.0832 0.82225 20.2609 0 19.2499 0ZM19.2499 2.75C18.7439 2.75 18.3332 2.3384 18.3332 1.83335C18.3332 1.32825 18.7439 0.916695 19.2499 0.916695C19.7559 0.916695 20.1665 1.32829 20.1665 1.83335C20.1665 2.3384 19.7559 2.75 19.2499 2.75Z" fill="white"/>
<path d="M18.603 2.4805C18.4242 2.30175 18.1336 2.30175 17.9549 2.4805L14.3982 6.03715C14.2195 6.2159 14.2195 6.5065 14.3982 6.68525C14.4881 6.77415 14.6054 6.8191 14.7227 6.8191C14.8391 6.8191 14.9565 6.7751 15.0463 6.68525L18.603 3.1286C18.7817 2.94985 18.7817 2.65925 18.603 2.4805Z" fill="white"/>
<path d="M12.642 6.27545L9.69764 5.4358C9.45104 5.3643 9.20079 5.5073 9.13204 5.75115C9.06239 5.99499 9.20354 6.24799 9.44645 6.31765L12.3908 7.1573C12.4329 7.1692 12.4751 7.1747 12.5164 7.1747C12.7162 7.1747 12.8995 7.0436 12.9573 6.84195C13.027 6.59905 12.8858 6.3451 12.642 6.27545Z" fill="white"/>
<path d="M7.53488 6.07107C7.37723 5.87307 7.08938 5.84097 6.89138 5.99772L3.43553 8.75322C3.23753 8.91182 3.20453 9.19963 3.36313 9.39763C3.45388 9.51128 3.58773 9.56997 3.72153 9.56997C3.82143 9.56997 3.92228 9.53697 4.00663 9.47097L7.46248 6.71547C7.66048 6.55688 7.69348 6.26907 7.53488 6.07107Z" fill="white"/>
</g>
<defs>
<clipPath id="clip0">
<rect width="22" height="22" fill="white"/>
</clipPath>
</defs>
</svg>
