<svg width="603" height="569" viewBox="0 0 603 569" fill="none" xmlns="http://www.w3.org/2000/svg">
<path fill-rule="evenodd" clip-rule="evenodd" d="M387.722 0C268.828 0 172.445 96.3832 172.445 215.278V223.24C172.445 226.513 172.518 229.769 172.662 233.006C173.056 241.817 165.689 249.287 156.869 249.287C70.2327 249.287 0 319.519 0 406.156V411.958C0 498.594 70.2327 568.827 156.869 568.827C225.365 568.827 283.608 524.926 304.995 463.726C311.535 445.011 331.669 432.096 351.211 435.434C363.078 437.462 375.277 438.518 387.722 438.518C506.617 438.518 603 342.135 603 223.24V215.278C603 96.3831 506.617 0 387.722 0Z" fill="white"/>
<path fill-rule="evenodd" clip-rule="evenodd" d="M366.5 33.8266C259.633 33.8266 173 120.459 173 227.327C173 231.193 173.113 235.033 173.337 238.843C173.811 246.909 167.08 253.827 159 253.827C81.1279 253.827 18 316.954 18 394.827C18 472.699 81.1279 535.827 159 535.827C218.625 535.827 269.606 498.817 290.224 446.516C297.434 428.229 317.45 415.589 336.879 418.574C346.536 420.057 356.428 420.827 366.5 420.827C473.367 420.827 560 334.194 560 227.327C560 120.459 473.367 33.8266 366.5 33.8266Z" fill="#FF6B08"/>
</svg>
